<svg xmlns="http://www.w3.org/2000/svg" xmlns:xlink="http://www.w3.org/1999/xlink" width="500" zoomAndPan="magnify" viewBox="0 0 375 374.999991" height="500" preserveAspectRatio="xMidYMid meet" version="1.0"><defs><clipPath id="414c1b4e1f"><path d="M 81 81 L 148 81 L 148 148 L 81 148 Z M 81 81 " clip-rule="nonzero"/></clipPath><clipPath id="940fec72b8"><path d="M 81.941406 114.800781 L 114.832031 81.90625 L 147.726562 114.800781 L 114.832031 147.691406 Z M 81.941406 114.800781 " clip-rule="nonzero"/></clipPath><clipPath id="4440444408"><path d="M 0.800781 0.800781 L 66.800781 0.800781 L 66.800781 66.800781 L 0.800781 66.800781 Z M 0.800781 0.800781 " clip-rule="nonzero"/></clipPath><clipPath id="01bf697132"><path d="M 0.941406 33.800781 L 33.832031 0.90625 L 66.726562 33.800781 L 33.832031 66.691406 Z M 0.941406 33.800781 " clip-rule="nonzero"/></clipPath><clipPath id="006b5fa333"><rect x="0" width="67" y="0" height="67"/></clipPath><clipPath id="4c0001168e"><path d="M 162 114 L 227.960938 114 L 227.960938 181 L 162 181 Z M 162 114 " clip-rule="nonzero"/></clipPath><clipPath id="bb27fa42b0"><path d="M 227.816406 147.367188 L 194.921875 180.261719 L 162.027344 147.367188 L 194.921875 114.476562 Z M 227.816406 147.367188 " clip-rule="nonzero"/></clipPath><clipPath id="2c52726fad"><path d="M 0 0.441406 L 65.960938 0.441406 L 65.960938 66.441406 L 0 66.441406 Z M 0 0.441406 " clip-rule="nonzero"/></clipPath><clipPath id="79a75a5a3e"><path d="M 65.816406 33.367188 L 32.921875 66.261719 L 0.0273438 33.367188 L 32.921875 0.476562 Z M 65.816406 33.367188 " clip-rule="nonzero"/></clipPath><clipPath id="36175e6716"><rect x="0" width="66" y="0" height="67"/></clipPath><clipPath id="713e71f7a2"><path d="M 1 48 L 67 48 L 67 115 L 1 115 Z M 1 48 " clip-rule="nonzero"/></clipPath><clipPath id="d1a37dd79e"><path d="M 1.136719 81.582031 L 34.03125 48.6875 L 66.921875 81.582031 L 34.03125 114.476562 Z M 1.136719 81.582031 " clip-rule="nonzero"/></clipPath><clipPath id="c87ee0e20c"><path d="M 0 0.679688 L 66 0.679688 L 66 66.679688 L 0 66.679688 Z M 0 0.679688 " clip-rule="nonzero"/></clipPath><clipPath id="38ca146181"><path d="M 0.136719 33.582031 L 33.03125 0.6875 L 65.921875 33.582031 L 33.03125 66.476562 Z M 0.136719 33.582031 " clip-rule="nonzero"/></clipPath><clipPath id="cc73f23988"><rect x="0" width="66" y="0" height="67"/></clipPath><clipPath id="517f07051b"><path d="M 114 162 L 181 162 L 181 227.960938 L 114 227.960938 Z M 114 162 " clip-rule="nonzero"/></clipPath><clipPath id="a2fc650b3d"><path d="M 180.226562 194.957031 L 147.335938 227.847656 L 114.441406 194.957031 L 147.335938 162.0625 Z M 180.226562 194.957031 " clip-rule="nonzero"/></clipPath><clipPath id="4cc627e780"><path d="M 0.441406 0 L 66.441406 0 L 66.441406 65.960938 L 0.441406 65.960938 Z M 0.441406 0 " clip-rule="nonzero"/></clipPath><clipPath id="6d446bd512"><path d="M 66.226562 32.957031 L 33.335938 65.847656 L 0.441406 32.957031 L 33.335938 0.0625 Z M 66.226562 32.957031 " clip-rule="nonzero"/></clipPath><clipPath id="5c603fc61d"><rect x="0" width="67" y="0" height="66"/></clipPath><clipPath id="bc3338bbd6"><path d="M 48 1 L 115 1 L 115 67 L 48 67 Z M 48 1 " clip-rule="nonzero"/></clipPath><clipPath id="58605fab1c"><path d="M 48.722656 33.996094 L 81.617188 1.101562 L 114.511719 33.996094 L 81.617188 66.886719 Z M 48.722656 33.996094 " clip-rule="nonzero"/></clipPath><clipPath id="e2db6faca1"><path d="M 0.679688 0 L 66.679688 0 L 66.679688 65.921875 L 0.679688 65.921875 Z M 0.679688 0 " clip-rule="nonzero"/></clipPath><clipPath id="2911e10465"><path d="M 0.722656 32.996094 L 33.617188 0.101562 L 66.511719 32.996094 L 33.617188 65.886719 Z M 0.722656 32.996094 " clip-rule="nonzero"/></clipPath><clipPath id="b5dcac66a7"><rect x="0" width="67" y="0" height="66"/></clipPath><clipPath id="1c46ad1bec"><path d="M 162 48 L 227.960938 48 L 227.960938 115 L 162 115 Z M 162 48 " clip-rule="nonzero"/></clipPath><clipPath id="4b13c1da68"><path d="M 227.816406 81.582031 L 194.921875 114.476562 L 162.027344 81.582031 L 194.921875 48.6875 Z M 227.816406 81.582031 " clip-rule="nonzero"/></clipPath><clipPath id="2a981d698d"><path d="M 0 0.679688 L 65.960938 0.679688 L 65.960938 66.679688 L 0 66.679688 Z M 0 0.679688 " clip-rule="nonzero"/></clipPath><clipPath id="c2fe85441b"><path d="M 65.816406 33.582031 L 32.921875 66.476562 L 0.0273438 33.582031 L 32.921875 0.6875 Z M 65.816406 33.582031 " clip-rule="nonzero"/></clipPath><clipPath id="26bccb42bc"><rect x="0" width="66" y="0" height="67"/></clipPath><clipPath id="2a597062dc"><path d="M 1 114 L 67 114 L 67 181 L 1 181 Z M 1 114 " clip-rule="nonzero"/></clipPath><clipPath id="d3283ed2a0"><path d="M 1.136719 147.367188 L 34.03125 114.476562 L 66.921875 147.367188 L 34.03125 180.261719 Z M 1.136719 147.367188 " clip-rule="nonzero"/></clipPath><clipPath id="20c2ef98d1"><path d="M 0 0.441406 L 66 0.441406 L 66 66.441406 L 0 66.441406 Z M 0 0.441406 " clip-rule="nonzero"/></clipPath><clipPath id="2c5ae39c0b"><path d="M 0.136719 33.367188 L 33.03125 0.476562 L 65.921875 33.367188 L 33.03125 66.261719 Z M 0.136719 33.367188 " clip-rule="nonzero"/></clipPath><clipPath id="2fc24c9451"><rect x="0" width="66" y="0" height="67"/></clipPath><clipPath id="39db026553"><path d="M 48 162 L 115 162 L 115 227.960938 L 48 227.960938 Z M 48 162 " clip-rule="nonzero"/></clipPath><clipPath id="021cde5386"><path d="M 114.441406 194.957031 L 81.546875 227.847656 L 48.65625 194.957031 L 81.546875 162.0625 Z M 114.441406 194.957031 " clip-rule="nonzero"/></clipPath><clipPath id="695f5d10c1"><path d="M 0.441406 0 L 66.679688 0 L 66.679688 65.960938 L 0.441406 65.960938 Z M 0.441406 0 " clip-rule="nonzero"/></clipPath><clipPath id="da5d1982ea"><path d="M 66.441406 32.957031 L 33.546875 65.847656 L 0.65625 32.957031 L 33.546875 0.0625 Z M 66.441406 32.957031 " clip-rule="nonzero"/></clipPath><clipPath id="8b3ce9b1ba"><rect x="0" width="67" y="0" height="66"/></clipPath><clipPath id="4a21e93c11"><path d="M 114 1 L 181 1 L 181 67 L 114 67 Z M 114 1 " clip-rule="nonzero"/></clipPath><clipPath id="666e6bcbbb"><path d="M 114.511719 33.996094 L 147.402344 1.101562 L 180.296875 33.996094 L 147.402344 66.886719 Z M 114.511719 33.996094 " clip-rule="nonzero"/></clipPath><clipPath id="f0024fb586"><path d="M 0.441406 0 L 66.441406 0 L 66.441406 65.921875 L 0.441406 65.921875 Z M 0.441406 0 " clip-rule="nonzero"/></clipPath><clipPath id="16b079d778"><path d="M 0.511719 32.996094 L 33.402344 0.101562 L 66.296875 32.996094 L 33.402344 65.886719 Z M 0.511719 32.996094 " clip-rule="nonzero"/></clipPath><clipPath id="1af978e444"><rect x="0" width="67" y="0" height="66"/></clipPath><clipPath id="438822032a"><rect x="0" width="228" y="0" height="228"/></clipPath></defs><g transform="matrix(1, 0, 0, 1, 73, 73)"><g clip-path="url(#438822032a)"><g clip-path="url(#414c1b4e1f)"><g clip-path="url(#940fec72b8)"><g transform="matrix(1, 0, 0, 1, 81, 81)"><g clip-path="url(#006b5fa333)"><g clip-path="url(#4440444408)"><g clip-path="url(#01bf697132)"><path fill="#cef009" d="M 0.941406 33.800781 L 33.832031 0.90625 L 66.726562 33.800781 L 33.832031 66.691406 Z M 0.941406 33.800781 " fill-opacity="1" fill-rule="nonzero"/></g></g></g></g></g></g><g clip-path="url(#4c0001168e)"><g clip-path="url(#bb27fa42b0)"><g transform="matrix(1, 0, 0, 1, 162, 114)"><g clip-path="url(#36175e6716)"><g clip-path="url(#2c52726fad)"><g clip-path="url(#79a75a5a3e)"><path fill="#cef009" d="M 65.816406 33.367188 L 32.921875 66.261719 L 0.0273438 33.367188 L 32.921875 0.476562 Z M 65.816406 33.367188 " fill-opacity="1" fill-rule="nonzero"/></g></g></g></g></g></g><g clip-path="url(#713e71f7a2)"><g clip-path="url(#d1a37dd79e)"><g transform="matrix(1, 0, 0, 1, 1, 48)"><g clip-path="url(#cc73f23988)"><g clip-path="url(#c87ee0e20c)"><g clip-path="url(#38ca146181)"><path fill="#cef009" d="M 0.136719 33.582031 L 33.03125 0.6875 L 65.921875 33.582031 L 33.03125 66.476562 Z M 0.136719 33.582031 " fill-opacity="1" fill-rule="nonzero"/></g></g></g></g></g></g><g clip-path="url(#517f07051b)"><g clip-path="url(#a2fc650b3d)"><g transform="matrix(1, 0, 0, 1, 114, 162)"><g clip-path="url(#5c603fc61d)"><g clip-path="url(#4cc627e780)"><g clip-path="url(#6d446bd512)"><path fill="#cef009" d="M 66.226562 32.957031 L 33.335938 65.847656 L 0.441406 32.957031 L 33.335938 0.0625 Z M 66.226562 32.957031 " fill-opacity="1" fill-rule="nonzero"/></g></g></g></g></g></g><g clip-path="url(#bc3338bbd6)"><g clip-path="url(#58605fab1c)"><g transform="matrix(1, 0, 0, 1, 48, 1)"><g clip-path="url(#b5dcac66a7)"><g clip-path="url(#e2db6faca1)"><g clip-path="url(#2911e10465)"><path fill="#cef009" d="M 0.722656 32.996094 L 33.617188 0.101562 L 66.511719 32.996094 L 33.617188 65.886719 Z M 0.722656 32.996094 " fill-opacity="1" fill-rule="nonzero"/></g></g></g></g></g></g><g clip-path="url(#1c46ad1bec)"><g clip-path="url(#4b13c1da68)"><g transform="matrix(1, 0, 0, 1, 162, 48)"><g clip-path="url(#26bccb42bc)"><g clip-path="url(#2a981d698d)"><g clip-path="url(#c2fe85441b)"><path fill="#cef009" d="M 65.816406 33.582031 L 32.921875 66.476562 L 0.0273438 33.582031 L 32.921875 0.6875 Z M 65.816406 33.582031 " fill-opacity="1" fill-rule="nonzero"/></g></g></g></g></g></g><g clip-path="url(#2a597062dc)"><g clip-path="url(#d3283ed2a0)"><g transform="matrix(1, 0, 0, 1, 1, 114)"><g clip-path="url(#2fc24c9451)"><g clip-path="url(#20c2ef98d1)"><g clip-path="url(#2c5ae39c0b)"><path fill="#cef009" d="M 0.136719 33.367188 L 33.03125 0.476562 L 65.921875 33.367188 L 33.03125 66.261719 Z M 0.136719 33.367188 " fill-opacity="1" fill-rule="nonzero"/></g></g></g></g></g></g><g clip-path="url(#39db026553)"><g clip-path="url(#021cde5386)"><g transform="matrix(1, 0, 0, 1, 48, 162)"><g clip-path="url(#8b3ce9b1ba)"><g clip-path="url(#695f5d10c1)"><g clip-path="url(#da5d1982ea)"><path fill="#cef009" d="M 66.441406 32.957031 L 33.546875 65.847656 L 0.65625 32.957031 L 33.546875 0.0625 Z M 66.441406 32.957031 " fill-opacity="1" fill-rule="nonzero"/></g></g></g></g></g></g><g clip-path="url(#4a21e93c11)"><g clip-path="url(#666e6bcbbb)"><g transform="matrix(1, 0, 0, 1, 114, 1)"><g clip-path="url(#1af978e444)"><g clip-path="url(#f0024fb586)"><g clip-path="url(#16b079d778)"><path fill="#cef009" d="M 0.511719 32.996094 L 33.402344 0.101562 L 66.296875 32.996094 L 33.402344 65.886719 Z M 0.511719 32.996094 " fill-opacity="1" fill-rule="nonzero"/></g></g></g></g></g></g></g></g></svg>